<svg xmlns="http://www.w3.org/2000/svg" viewBox="0 0 32 32">
  <!-- Cloud outline -->
  <path d="M 6 20 Q 6 16 9 14.5 Q 9 11 12 10 Q 13.5 7 17 7 Q 20.5 7 22 10 Q 25 11 25 14.5 Q 28 16 28 20 Q 28 23 25 23 H 9 Q 6 23 6 20 Z"
        fill="none"
        stroke="currentColor"
        stroke-width="2"
        stroke-linecap="round"
        stroke-linejoin="round"/>

  <!-- Web pattern inside cloud -->
  <g stroke="currentColor" stroke-width="1.5" fill="none" opacity="0.8">
    <!-- Radial lines from center -->
    <line x1="17" y1="15" x2="17" y2="10"/>
    <line x1="17" y1="15" x2="21" y2="12"/>
    <line x1="17" y1="15" x2="23" y2="16"/>
    <line x1="17" y1="15" x2="20" y2="19"/>
    <line x1="17" y1="15" x2="17" y2="21"/>
    <line x1="17" y1="15" x2="14" y2="19"/>
    <line x1="17" y1="15" x2="11" y2="16"/>
    <line x1="17" y1="15" x2="13" y2="12"/>

    <!-- Center dot -->
    <circle cx="17" cy="15" r="1.5" fill="currentColor"/>
  </g>
</svg>
