<svg xmlns="http://www.w3.org/2000/svg" viewBox="0 0 24 24" fill="none" stroke="currentColor" stroke-width="1.5" stroke-linecap="round" stroke-linejoin="round">
  <!-- Cloud outline -->
  <path d="M 4 14 Q 4 11 6 10 Q 6 8 8 8 Q 9 6 12 6 Q 15 6 16 8 Q 18 8 18 10 Q 20 11 20 14 Q 20 16 18 16 H 6 Q 4 16 4 14 Z"/>

  <!-- Web pattern inside cloud -->
  <g opacity="0.7">
    <!-- Radial lines from center -->
    <line x1="12" y1="11" x2="12" y2="8"/>
    <line x1="12" y1="11" x2="15" y2="9"/>
    <line x1="12" y1="11" x2="16" y2="12"/>
    <line x1="12" y1="11" x2="14" y2="14"/>
    <line x1="12" y1="11" x2="12" y2="15"/>
    <line x1="12" y1="11" x2="10" y2="14"/>
    <line x1="12" y1="11" x2="8" y2="12"/>
    <line x1="12" y1="11" x2="9" y2="9"/>

    <!-- Small circle at center -->
    <circle cx="12" cy="11" r="1"/>
  </g>
</svg>
